# xmcd CD database file
#
# Track frame offsets:
#	150
#	15145
#	29158
#	44110
#
# Disc length: 772 seconds
#
# Revision: 0
# Processed by: cddbd v1.5.1PL0 Copyright (c) Steve Scherf et al.
# Submitted via: CDex 1.51
#
DISCID=2d030204
DTITLE=唐渡吉則 - 六甲おろし
DYEAR=2004
DGENRE=Other
TTITLE0=六甲おろし
TTITLE1=行くのだタイガース
TTITLE2=六甲おろし（カラオケ）
TTITLE3=行くのだタイガース（カラオケ）
EXTD=YEAR: 2004
EXTT0=
EXTT1=
EXTT2=
EXTT3=
PLAYORDER=
